<svg id="Layer_4" data-name="Layer 4" xmlns="http://www.w3.org/2000/svg" viewBox="0 0 292.47 187.44"><defs><style>.cls-1{fill:#fff;}.cls-2{fill:#d1aaa6;}.cls-3{fill:#d1b6b2;}.cls-4{fill:#a5adce;}.cls-5{fill:#f52;}.cls-6{fill:#fce0d9;}.cls-7{fill:#f7f1f0;}.cls-8{fill:#ffcb80;}.cls-9{fill:#e89823;}.cls-10{fill:#e8ebf9;}.cls-11{fill:#bcbfc1;}</style></defs><path class="cls-1" d="M277.38,195.72a16.35,16.35,0,0,1-2.58-2.95,5.64,5.64,0,0,1-.66-3.64,2.39,2.39,0,0,1,1.31-2,2.11,2.11,0,0,1,2,.49,9.29,9.29,0,0,1,1.38,1.68,12,12,0,0,0,6.18,4.26,35.43,35.43,0,0,0,7.35-10.77c.12-.26.24-.53.35-.8a5.64,5.64,0,0,0-1.56-1.18,17.64,17.64,0,0,0-3.27-1.16,9.78,9.78,0,0,1-3.16-1.41,2.61,2.61,0,0,1-1.14-1.75,2.16,2.16,0,0,1,1.56-2.08,4.18,4.18,0,0,1,2.74.23c.87.34,1.67.83,2.54,1.19a9.3,9.3,0,0,0,4,.7,42.37,42.37,0,0,0,1-11.2,4.12,4.12,0,0,0-.61,0c-.7.07-1.37.29-2.07.33a4.25,4.25,0,0,1-3.25-1.24,2.75,2.75,0,0,1-.71-1.16,1.58,1.58,0,0,1,.23-1.32,1.8,1.8,0,0,1,1.52-.58,11.68,11.68,0,0,1,1.67.3,6.4,6.4,0,0,0,2.95-.16c-.32-3.14-.81-6-1.21-8.54a2.68,2.68,0,0,0-.49,0,2.69,2.69,0,0,1-1.17-.17.88.88,0,0,1-.52-1,1,1,0,0,1,.63-.57c.28-.09.58-.11.86-.19a2.26,2.26,0,0,0,.39-.15c-.37-2.79-.46-5,.26-6.35l-37,38.35c2.9,2.8.64,9.1,6.6,14.85,3.82,3.69,9.76,3.54,15.51.36A7.21,7.21,0,0,0,277.38,195.72Zm3.9-16.53a3.57,3.57,0,0,1,1.11,1.6,1.52,1.52,0,0,1-.71,1.67,1.6,1.6,0,0,1-1.14.06,3.87,3.87,0,0,1-1-.53,12.12,12.12,0,0,1-1.84-1.51,2.29,2.29,0,0,1-.88-1.82,1.54,1.54,0,0,1,1.24-1.19,2.48,2.48,0,0,1,1.73.39A7.41,7.41,0,0,1,281.28,179.19Zm4.66-13a1.24,1.24,0,0,1,.82.14,3.44,3.44,0,0,1,1.35,1.35.77.77,0,0,1-.22.95,1.06,1.06,0,0,1-1.08-.18,5.43,5.43,0,0,1-1-.79,1.13,1.13,0,0,1-.44-.92A.73.73,0,0,1,285.94,166.22Zm1.35-8.36a1.06,1.06,0,0,1-.41-1.06,1.25,1.25,0,0,1,.65-.67,2.08,2.08,0,0,1,2.33.11c.57.49,1,1.45.29,2a1.37,1.37,0,0,1-.86.24,3.87,3.87,0,0,1-.89-.16A3.13,3.13,0,0,1,287.29,157.86ZM281,169.14a1.89,1.89,0,0,1-.89-1.1,1.25,1.25,0,0,1,.75-1.27,2.05,2.05,0,0,1,1.54,0,5.91,5.91,0,0,1,1.34.81,4.57,4.57,0,0,1,1.35,1.12,1.3,1.3,0,0,1-.18,1.7,1.76,1.76,0,0,1-1.68,0A11.81,11.81,0,0,1,281,169.14Zm-12.88,25.15a3.06,3.06,0,0,1-1.37-1,5.74,5.74,0,0,1-1.27-2.55,2.67,2.67,0,0,1,0-1.16,1.34,1.34,0,0,1,.64-.92c.52-.28.91,0,1.3.32a14.85,14.85,0,0,1,1.5,1.36,4.35,4.35,0,0,1,1.08,2,1.82,1.82,0,0,1-.29,1.56A1.56,1.56,0,0,1,268.16,194.29Z" transform="translate(-16.51 -33.71)"/><path class="cls-2" d="M270.67,201.12a10.61,10.61,0,0,1-7.56-2.93c-3.64-3.52-4.32-7.23-4.87-10.21-.37-2-.66-3.62-1.72-4.64a.58.58,0,0,1,0-.8l37-38.35a.57.57,0,0,1,.91.66c-.7,1.33-.51,3.68-.2,6a.59.59,0,0,1-.32.59,4.09,4.09,0,0,1-.49.18l-.41.09a2.71,2.71,0,0,0-.41.09.52.52,0,0,0-.28.19c0,.07.08.22.23.3a2.17,2.17,0,0,0,.91.11H294a.58.58,0,0,1,.53.48l.21,1.38c.35,2.15.73,4.59,1,7.19a.56.56,0,0,1-.4.6,7,7,0,0,1-3.21.18l-.57-.12a5.57,5.57,0,0,0-1-.17,1.22,1.22,0,0,0-1.05.36,1,1,0,0,0-.13.82,2.08,2.08,0,0,0,.57.91,3.62,3.62,0,0,0,2.81,1.07,7.68,7.68,0,0,0,1-.16c.33-.06.67-.13,1-.17a4.21,4.21,0,0,1,.71,0,.57.57,0,0,1,.53.54,42.7,42.7,0,0,1-1,11.35.57.57,0,0,1-.53.43,9.79,9.79,0,0,1-4.29-.73c-.42-.18-.82-.38-1.21-.57s-.87-.44-1.32-.62a3.58,3.58,0,0,0-2.36-.22,1.6,1.6,0,0,0-1.16,1.49,2.19,2.19,0,0,0,.92,1.35,9.47,9.47,0,0,0,3,1.32l.48.13a15.84,15.84,0,0,1,2.9,1.07,6,6,0,0,1,1.71,1.31.56.56,0,0,1,.1.59c-.11.27-.23.54-.35.81a36.05,36.05,0,0,1-7.48,11,.58.58,0,0,1-.55.14,12.56,12.56,0,0,1-6.47-4.47l-.3-.4a6.48,6.48,0,0,0-1-1.18,1.59,1.59,0,0,0-1.46-.4c-.68.25-.89,1.24-.94,1.54a5,5,0,0,0,.6,3.27,10.93,10.93,0,0,0,1.84,2.18l.65.65h0a7.71,7.71,0,0,1,1.77,2.62.57.57,0,0,1-.26.69A18.07,18.07,0,0,1,270.67,201.12Zm-13-18.18c1,1.25,1.32,2.92,1.67,4.83.54,3,1.16,6.34,4.54,9.6s8.76,3.48,14.4.51a7.69,7.69,0,0,0-1.33-1.77h0l-.63-.64a11.59,11.59,0,0,1-2-2.42,6.17,6.17,0,0,1-.73-4,2.89,2.89,0,0,1,1.67-2.43,2.69,2.69,0,0,1,2.58.6,7.44,7.44,0,0,1,1.2,1.39l.28.38a11.4,11.4,0,0,0,5.56,4,35.19,35.19,0,0,0,7-10.36c.07-.14.13-.29.2-.44a5.76,5.76,0,0,0-1.15-.81,14.06,14.06,0,0,0-2.69-1l-.48-.13a10.45,10.45,0,0,1-3.34-1.51,3.05,3.05,0,0,1-1.36-2.15,2.72,2.72,0,0,1,1.94-2.67,4.65,4.65,0,0,1,3.12.24c.5.2,1,.43,1.42.66s.75.38,1.13.54A8.92,8.92,0,0,0,294,176a41.17,41.17,0,0,0,.88-10.07h0a7.77,7.77,0,0,0-.9.16,10.78,10.78,0,0,1-1.18.18,4.83,4.83,0,0,1-3.7-1.41,3.33,3.33,0,0,1-.85-1.42,2.08,2.08,0,0,1,.33-1.8,2.32,2.32,0,0,1,2-.81,6.76,6.76,0,0,1,1.22.2l.53.11a5.73,5.73,0,0,0,2.22,0c-.25-2.39-.61-4.64-.93-6.64l-.14-.92h-.19a2.77,2.77,0,0,1-1.24-.22,1.45,1.45,0,0,1-.82-1.64,1.48,1.48,0,0,1,1-.94,3.37,3.37,0,0,1,.57-.14l.24,0a20.12,20.12,0,0,1-.18-4Zm11,12a2.43,2.43,0,0,1-.65-.09h0a3.49,3.49,0,0,1-1.64-1.14,6.32,6.32,0,0,1-1.39-2.8,3.2,3.2,0,0,1,0-1.4,1.92,1.92,0,0,1,.94-1.3,1.63,1.63,0,0,1,1.92.39l.33.27a10.93,10.93,0,0,1,1.23,1.14,4.82,4.82,0,0,1,1.21,2.24,2.33,2.33,0,0,1-.42,2A2,2,0,0,1,268.65,194.93Zm-2.1-5.78a.3.3,0,0,0-.15,0,.83.83,0,0,0-.36.55,2.23,2.23,0,0,0,0,.91,5.14,5.14,0,0,0,1.14,2.3,2.37,2.37,0,0,0,1.09.78h0a1,1,0,0,0,1-.2,1.23,1.23,0,0,0,.16-1.07,3.89,3.89,0,0,0-.94-1.72,10.84,10.84,0,0,0-1.11-1l-.34-.28C266.78,189.22,266.65,189.15,266.55,189.15Zm14.51-6a2.22,2.22,0,0,1-.67-.1,4,4,0,0,1-1.19-.6,12.68,12.68,0,0,1-1.93-1.58,2.87,2.87,0,0,1-1-2.31,2.06,2.06,0,0,1,1.69-1.65,3,3,0,0,1,2.14.46,8,8,0,0,1,1.63,1.42l.16.16a3.52,3.52,0,0,1,1.09,1.71,2.06,2.06,0,0,1-1,2.3A2,2,0,0,1,281.06,183.16ZM278.39,178a1.14,1.14,0,0,0-.26,0,1,1,0,0,0-.78.71c-.05.36.18.8.72,1.34a12.15,12.15,0,0,0,1.76,1.44,3.14,3.14,0,0,0,.87.45,1.06,1.06,0,0,0,.73,0,1,1,0,0,0,.4-1,2.65,2.65,0,0,0-.79-1.16l-.17-.17h0a7,7,0,0,0-1.4-1.23A2.06,2.06,0,0,0,278.39,178Zm5.9-6.83a3.24,3.24,0,0,1-1.23-.29,12.15,12.15,0,0,1-2.35-1.28h0a2.34,2.34,0,0,1-1.11-1.47,1.77,1.77,0,0,1,1.06-1.88,2.53,2.53,0,0,1,2,0A6,6,0,0,1,284,167l.11.09.34.22a3.51,3.51,0,0,1,1.17,1.06,1.85,1.85,0,0,1-.33,2.46A1.63,1.63,0,0,1,284.29,171.18Zm-2.93-2.5a11,11,0,0,0,2.13,1.16c.53.22.93.26,1.13.11s.21-.64,0-.93a2.68,2.68,0,0,0-.83-.72l-.37-.25-.13-.09a4.65,4.65,0,0,0-1.08-.64,1.43,1.43,0,0,0-1.11,0,.68.68,0,0,0-.42.65c.05.28.38.54.65.74Zm6.2.64a2,2,0,0,1-1.05-.35,7.13,7.13,0,0,1-1.1-.87,1.64,1.64,0,0,1-.6-1.43,1.28,1.28,0,0,1,1-1h0a1.72,1.72,0,0,1,1.2.19,3.89,3.89,0,0,1,1.61,1.63,1.33,1.33,0,0,1-.45,1.66A1.2,1.2,0,0,1,287.56,169.32Zm-1.49-2.55a.21.21,0,0,0-.14.1s0,.13.27.41a5.37,5.37,0,0,0,.92.73c.28.18.44.18.47.17a.33.33,0,0,0,0-.25,2.9,2.9,0,0,0-1.1-1.07A.71.71,0,0,0,286.07,166.77Zm3.27-7.71h-.06a4.88,4.88,0,0,1-1-.18,3.45,3.45,0,0,1-1.31-.58h0a1.6,1.6,0,0,1-.6-1.67,1.74,1.74,0,0,1,.92-1,2.66,2.66,0,0,1,3,.18,2.35,2.35,0,0,1,.86,1.73,1.46,1.46,0,0,1-.6,1.16A1.9,1.9,0,0,1,289.34,159.06Zm-.66-2.66a1.86,1.86,0,0,0-.88.23.72.72,0,0,0-.37.33.48.48,0,0,0,.22.45h0a2.52,2.52,0,0,0,.9.36,3.28,3.28,0,0,0,.76.14.77.77,0,0,0,.49-.12.35.35,0,0,0,.16-.29,1.23,1.23,0,0,0-.47-.84A1.26,1.26,0,0,0,288.68,156.4Z" transform="translate(-16.51 -33.71)"/><path class="cls-1" d="M281.22,144.32a5.51,5.51,0,0,0-.46,3.68c.08.37.21.74.28,1.12a2.1,2.1,0,0,1-.08,1.14,1.08,1.08,0,0,1-.87.69,1.4,1.4,0,0,1-.86-.31,4.23,4.23,0,0,1-1.47-2.34,23.78,23.78,0,0,1-.49-2.78,4.34,4.34,0,0,0-.33-1.17,2,2,0,0,0-.28-.44,44.25,44.25,0,0,0-16,1.63,6.4,6.4,0,0,0,1.56,4.27c.54.62,1.21,1.13,1.79,1.71a4.23,4.23,0,0,1,1.27,2.09,2,2,0,0,1-.85,2.17,2.23,2.23,0,0,1-1.86.05,5.69,5.69,0,0,1-2.81-2.73c-.64-1.16-1.08-2.43-1.75-3.59a6.33,6.33,0,0,0-2-2.17l-.3.14a34,34,0,0,0-13.17,11.07,12.49,12.49,0,0,0,3.85,3.67,7.43,7.43,0,0,1,1.88,1.33,1.8,1.8,0,0,1,.28,2.13,1.63,1.63,0,0,1-1.39.61,3.73,3.73,0,0,1-1.51-.46c-1.14-.57-2.17-1.37-3.34-1.91a5.51,5.51,0,0,0-2.34-.56,18.63,18.63,0,0,0-.84,2.74l3.41,1a3.14,3.14,0,0,1,.89.36,1.49,1.49,0,0,1,.58,1.58,2.17,2.17,0,0,1-1.93,1.38,17.67,17.67,0,0,1-2.51-.13,4.19,4.19,0,0,0-.79,0,10,10,0,0,0,3,6.58c6,5.76,12.17,3.27,15.07,6.07l37-38.35C291.69,145.87,287.09,145,281.22,144.32Zm-24.15,20.07a1.93,1.93,0,0,1-1.56.35,4.11,4.11,0,0,1-2-1.4,7,7,0,0,1-1.17-1.55,2.58,2.58,0,0,1-.22-1.9,1.59,1.59,0,0,1,1.42-1.14,1.85,1.85,0,0,1,1.33.65,12,12,0,0,1,.89,1.23,5,5,0,0,0,1.16,1.13,1.54,1.54,0,0,1,.18,2.63ZM271,152.12a1.86,1.86,0,0,1,1,.53,4.65,4.65,0,0,1,.61.72,4.58,4.58,0,0,0,.42.68,2.74,2.74,0,0,1,.83,1.28,1.38,1.38,0,0,1-.39,1.37,1.45,1.45,0,0,1-1.31.19,3.45,3.45,0,0,1-1.16-.73,4.73,4.73,0,0,1-1.2-1.36,2.17,2.17,0,0,1-.18-1.76A1.41,1.41,0,0,1,271,152.12Zm-17.22,25.36a2.51,2.51,0,0,1-1.83,0,4.45,4.45,0,0,1-1.53-1.05,2.25,2.25,0,0,1-.82-2,1.62,1.62,0,0,1,1.21-1.12,2.71,2.71,0,0,1,1.7.21c.95.42,2.56,1.38,2.4,2.62A1.83,1.83,0,0,1,253.74,177.48Z" transform="translate(-16.51 -33.71)"/><path class="cls-2" d="M256.91,183.5a.59.59,0,0,1-.39-.16c-1.06-1-2.66-1.26-4.69-1.56-3-.44-6.74-1-10.38-4.51a10.53,10.53,0,0,1-3.15-7,.56.56,0,0,1,.48-.6,4.33,4.33,0,0,1,.89,0c.32,0,.64,0,1,.07a6.2,6.2,0,0,0,1.48.05,1.62,1.62,0,0,0,1.44-1,.92.92,0,0,0-.35-1,2.46,2.46,0,0,0-.72-.28l-3.42-.95a.58.58,0,0,1-.4-.68,18.9,18.9,0,0,1,.87-2.81.55.55,0,0,1,.52-.36,5.91,5.91,0,0,1,2.59.6,18.85,18.85,0,0,1,1.87,1.06c.51.31,1,.61,1.49.87a3.21,3.21,0,0,0,1.27.39,1,1,0,0,0,.91-.37,1.26,1.26,0,0,0-.25-1.43,5.39,5.39,0,0,0-1.37-1l-.37-.22a12.92,12.92,0,0,1-4-3.83.57.57,0,0,1,0-.64A34.81,34.81,0,0,1,255.54,147l.3-.14a.59.59,0,0,1,.55,0,6.68,6.68,0,0,1,2.16,2.37,20.41,20.41,0,0,1,.95,1.94c.27.58.51,1.13.81,1.66a5,5,0,0,0,2.51,2.46,1.68,1.68,0,0,0,1.38,0,1.51,1.51,0,0,0,.57-1.57,3.63,3.63,0,0,0-1.11-1.8l-.71-.65a14.21,14.21,0,0,1-1.11-1.09,7,7,0,0,1-1.7-4.65.57.57,0,0,1,.4-.54,44.06,44.06,0,0,1,16.16-1.64.57.57,0,0,1,.4.2,2.44,2.44,0,0,1,.35.55,4.76,4.76,0,0,1,.38,1.33c.05.28.08.56.12.84a14.78,14.78,0,0,0,.35,1.87,3.8,3.8,0,0,0,1.27,2,.81.81,0,0,0,.48.2.52.52,0,0,0,.39-.34,1.54,1.54,0,0,0,0-.82c0-.21-.1-.41-.15-.62s-.09-.32-.13-.48a6,6,0,0,1,.51-4.06.57.57,0,0,1,.57-.31l2.93.35c4.33.54,7.76,1,9.45,0a.56.56,0,0,1,.73.15.55.55,0,0,1,0,.74l-37,38.35a.54.54,0,0,1-.4.17Zm-17.43-12.69a9.19,9.19,0,0,0,2.76,5.64c3.38,3.27,6.76,3.77,9.75,4.21,1.92.28,3.61.53,4.89,1.49l35.18-36.43a37.29,37.29,0,0,1-8-.49l-2.51-.3a5,5,0,0,0-.25,2.94c0,.15.07.29.11.43s.13.48.18.72a2.58,2.58,0,0,1-.12,1.46,1.61,1.61,0,0,1-1.34,1,1.88,1.88,0,0,1-1.24-.41,4.82,4.82,0,0,1-1.69-2.65,14.35,14.35,0,0,1-.38-2l-.12-.81a3.84,3.84,0,0,0-.28-1l-.07-.13A43.34,43.34,0,0,0,261.28,146a5.84,5.84,0,0,0,1.41,3.48,13.7,13.7,0,0,0,1,1c.26.23.51.46.75.7a4.75,4.75,0,0,1,1.43,2.38,2.6,2.6,0,0,1-1.12,2.77,2.78,2.78,0,0,1-2.34.09,6.13,6.13,0,0,1-3.11-3c-.32-.57-.59-1.17-.85-1.75s-.57-1.25-.9-1.83A6.1,6.1,0,0,0,256,148a34,34,0,0,0-12.72,10.56,11.92,11.92,0,0,0,3.46,3.18l.35.21a6,6,0,0,1,1.66,1.24,2.35,2.35,0,0,1,.31,2.83,2.19,2.19,0,0,1-1.87.85,4.15,4.15,0,0,1-1.74-.52c-.55-.28-1.08-.6-1.58-.92a17.09,17.09,0,0,0-1.74-1,5.12,5.12,0,0,0-1.73-.48c-.21.58-.39,1.17-.54,1.75l2.88.81a3.2,3.2,0,0,1,1.06.43,2.07,2.07,0,0,1,.81,2.2,2.7,2.7,0,0,1-2.41,1.79,7.64,7.64,0,0,1-1.73-.05c-.29,0-.58-.06-.87-.07Zm13.41,7.4a3.28,3.28,0,0,1-1.18-.22,4.86,4.86,0,0,1-1.73-1.18,2.77,2.77,0,0,1-1-2.56,2.17,2.17,0,0,1,1.63-1.53,3.12,3.12,0,0,1,2.05.24c.9.39,3,1.5,2.74,3.22A2.39,2.39,0,0,1,254,178h0A2.89,2.89,0,0,1,252.89,178.21Zm-1.61-4.43a1.55,1.55,0,0,0-.37,0,1.06,1.06,0,0,0-.8.71c-.14.58.42,1.23.67,1.48a3.81,3.81,0,0,0,1.33.92,2,2,0,0,0,1.41,0,1.23,1.23,0,0,0,.78-.93c.11-.78-1.05-1.58-2.06-2A2.47,2.47,0,0,0,251.28,173.78Zm4.62-8.44a2.12,2.12,0,0,1-.5-.05,4.53,4.53,0,0,1-2.33-1.56A7.41,7.41,0,0,1,251.8,162a3.09,3.09,0,0,1-.25-2.32,2.14,2.14,0,0,1,2-1.54,2.39,2.39,0,0,1,1.74.83,6.9,6.9,0,0,1,.71,1l.23.34a4.37,4.37,0,0,0,1.05,1,2.24,2.24,0,0,1,1,1.61,2.18,2.18,0,0,1-.87,1.93h0A2.45,2.45,0,0,1,255.9,165.34Zm-2.38-6h0a1,1,0,0,0-.89.74,2,2,0,0,0,.19,1.47A6.13,6.13,0,0,0,253.9,163a3.55,3.55,0,0,0,1.72,1.23,1.39,1.39,0,0,0,1.1-.23,1.12,1.12,0,0,0,.43-.94c0-.32-.21-.51-.6-.8a5.58,5.58,0,0,1-1.28-1.25l-.26-.38a5.42,5.42,0,0,0-.59-.79A1.31,1.31,0,0,0,253.52,159.32Zm19.08-1.78a2.35,2.35,0,0,1-.68-.11,4,4,0,0,1-1.36-.83,5.58,5.58,0,0,1-1.33-1.53,2.72,2.72,0,0,1-.21-2.23,2,2,0,0,1,2-1.28,2.37,2.37,0,0,1,1.28.68,4.85,4.85,0,0,1,.69.81,2.59,2.59,0,0,1,.19.33,1,1,0,0,0,.17.28,3.15,3.15,0,0,1,1,1.54,1.91,1.91,0,0,1-.58,1.94A1.81,1.81,0,0,1,272.6,157.54Zm-1.78-4.86a.86.86,0,0,0-.74.57,1.61,1.61,0,0,0,.15,1.28,4.4,4.4,0,0,0,1.06,1.2,2.82,2.82,0,0,0,1,.61.7.7,0,0,0,1-.88,2.23,2.23,0,0,0-.69-1,2.16,2.16,0,0,1-.36-.55c0-.07-.08-.15-.12-.21a3.16,3.16,0,0,0-.53-.62,1.25,1.25,0,0,0-.65-.38h-.07Z" transform="translate(-16.51 -33.71)"/><path class="cls-1" d="M282.27,83.51c.38,2.51.75,5,1.13,7.53a62.77,62.77,0,0,1-4.46-6.17,141.74,141.74,0,0,0-14.47,7.18q.22,3.35.43,6.71L261,94.08l-2.05,1.24,5.79,7.71a79.2,79.2,0,0,0-9-5.66,154.82,154.82,0,0,0-15.53,11.5l7.68,8.43-10.33-6.13q-2.19,2-4.23,4l4.53,4.86-6.06-3.32A73.12,73.12,0,0,0,220.57,131l7.63,5.86a75,75,0,0,0-9.14-3c-4.53,9.52-4,18.43,4.55,24.94l84.12-80.09C301,77.82,292,79.72,282.27,83.51Z" transform="translate(-16.51 -33.71)"/><path class="cls-3" d="M223.65,159.55l-.38-.29c-8.14-6.16-9.77-15-4.72-25.63l.2-.42.45.11c1.91.49,3.81,1.06,5.67,1.69l-5-3.87.25-.43a73.55,73.55,0,0,1,11.29-14.44l.3-.31L235,117.8l-2.5-2.69.39-.39c1.36-1.33,2.79-2.67,4.25-4l.31-.28,7.41,4.4-5.51-6.05.45-.38a155.86,155.86,0,0,1,15.59-11.55l.28-.18.3.16c2.11,1.13,4.17,2.37,6.17,3.69l-4.05-5.39.53-.33,2.05-1.25.42-.25,3.11,3.72-.34-5.33.31-.18a144.8,144.8,0,0,1,14.53-7.2l.44-.19.26.4c1,1.53,2,3,3.1,4.45l-.88-5.86.42-.17c10.37-4,19.27-5.69,25.74-4.82l1.18.16Zm-4.27-25c-4.54,9.84-3.13,17.75,4.19,23.52l82.88-78.91c-6.08-.49-14.18,1.13-23.55,4.73L284.26,93,283,91.4a64.63,64.63,0,0,1-4.24-5.82,140.78,140.78,0,0,0-13.66,6.79l.51,8.08-4.71-5.64-1.1.67,7.7,10.24-3.06-2.23A79.17,79.17,0,0,0,255.75,98,153.24,153.24,0,0,0,241,108.93l9.84,10.8-13.24-7.86c-1.2,1.08-2.38,2.18-3.51,3.28l6.56,7-8.78-4.82a72.78,72.78,0,0,0-10.57,13.48l10.5,8.07L228,137.38A72.14,72.14,0,0,0,219.38,134.54Z" transform="translate(-16.51 -33.71)"/><path class="cls-1" d="M251.17,153.09l4,7.89a74.51,74.51,0,0,0,7.33-5.23l-8.31-10.84,10.16,9.31A120.88,120.88,0,0,0,276,142.82q-2.81-3.63-5.59-7.27l7.48,5.13c3.15-3.64,6.19-7.5,9-11.47l-7.83-8.76,9.52,6.36c2.93-4.25,5.64-8.59,8-12.9l-6.7-5.15,8.3,2.19a105.44,105.44,0,0,0,6.83-15.79,25.31,25.31,0,0,1-4.44-2.24l5.23-.3a39.87,39.87,0,0,0,1.84-13.9l-84.12,80.09c6.69,9.79,16.76,9.93,27.63,4.4A43.36,43.36,0,0,1,251.17,153.09Z" transform="translate(-16.51 -33.71)"/><path class="cls-3" d="M238,167.45c-6.07,0-11.11-2.79-14.89-8.32l-.27-.4.35-.33,85-80.91.1,1.18a39.79,39.79,0,0,1-1.86,14.11l-.11.39-3.75.21a24.21,24.21,0,0,0,2.74,1.25l.5.2-.17.51a105.68,105.68,0,0,1-6.87,15.87l-.21.41-6-1.59,4.85,3.73-.24.43c-2.4,4.31-5.11,8.67-8.06,12.94l-.32.46-6.27-4.18,5.16,5.76-.27.37c-2.88,4-5.93,7.89-9.06,11.51l-.33.38L273.06,138l3.69,4.81-.31.35a122.79,122.79,0,0,1-11.71,11.46l-.38.32-5.77-5.28,4.72,6.15-.44.34a75.08,75.08,0,0,1-7.38,5.27l-.52.32-3.4-6.67a43.14,43.14,0,0,0,.24,8l0,.39-.35.18C246.6,166.21,242.08,167.45,238,167.45Zm-13.68-8.57c7.39,10.37,18.28,8,26.28,4a43.85,43.85,0,0,1,0-9.85l.21-1.89,4.6,9a75.87,75.87,0,0,0,6.31-4.52l-8-10.39.83-.77,9.8,9a120.59,120.59,0,0,0,10.9-10.67l-7.47-9.72,10,6.85c2.9-3.37,5.72-6.95,8.41-10.67L275.7,117.5,288.48,126c2.71-4,5.22-8,7.45-12l-8.54-6.57,10.58,2.8a103.06,103.06,0,0,0,6.42-14.8,25,25,0,0,1-4-2.1l-1.48-.94,6.58-.37A40.57,40.57,0,0,0,307.23,80Z" transform="translate(-16.51 -33.71)"/><path class="cls-1" d="M94.42,71.38a245.25,245.25,0,0,0,56.83,103.38.95.95,0,0,1-1.39,1.29h0A246.27,246.27,0,0,1,94.42,71.38Z" transform="translate(-16.51 -33.71)"/><path class="cls-2" d="M150.56,176.92h-.06a1.53,1.53,0,0,1-1.06-.49A246.51,246.51,0,0,1,93.87,71.51l1.1-.28a244.35,244.35,0,0,0,56.7,103.14,1.53,1.53,0,0,1-.08,2.15A1.51,1.51,0,0,1,150.56,176.92Zm-.31-1.29,0,0a.42.42,0,0,0,.26.12.43.43,0,0,0,.28-.11.37.37,0,0,0,.12-.26.42.42,0,0,0-.1-.28A243,243,0,0,1,121.94,137,244.28,244.28,0,0,0,150.25,175.63Z" transform="translate(-16.51 -33.71)"/><path class="cls-1" d="M141.49,165.2c.26-6.23.54-12.52,2.08-18.57s4.46-11.91,9.22-15.94a84.57,84.57,0,0,1,.46,11.58,28.38,28.38,0,0,1-2.5,11.24C148.62,158,145.08,161.83,141.49,165.2Z" transform="translate(-16.51 -33.71)"/><path class="cls-4" d="M140.86,166.57l.06-1.39c.26-6.18.54-12.56,2.1-18.69,1.75-6.9,5-12.52,9.41-16.23l.82-.7.11,1.07a84.34,84.34,0,0,1,.46,11.66,28.75,28.75,0,0,1-2.56,11.46c-2.39,5-6.5,9.16-9.38,11.86Zm11.48-34.71c-4.77,4.45-7.1,10.5-8.22,14.91-1.42,5.56-1.75,11.37-2,17a39.34,39.34,0,0,0,8.12-10.56,27.79,27.79,0,0,0,2.44-11A82.1,82.1,0,0,0,152.34,131.86Z" transform="translate(-16.51 -33.71)"/><path class="cls-1" d="M142.59,166.2c-5.86-2.16-11.76-4.35-17.93-5.27s-12.71-.5-18.27,2.34a84.86,84.86,0,0,0,10.5,4.9,28.12,28.12,0,0,0,11.33,2C133.14,170,138.09,168.21,142.59,166.2Z" transform="translate(-16.51 -33.71)"/><path class="cls-4" d="M127.16,170.81a29.84,29.84,0,0,1-10.47-2.11,84.26,84.26,0,0,1-10.57-4.93l-1-.52,1-.49c5.13-2.62,11.56-3.44,18.61-2.39,6.26.93,12.25,3.15,18,5.3l1.31.49-1.27.56c-3.62,1.61-9.06,3.78-14.57,4.06C127.89,170.8,127.52,170.81,127.16,170.81Zm-19.52-7.51a82.09,82.09,0,0,0,9.45,4.34,27.77,27.77,0,0,0,11.1,2,39.47,39.47,0,0,0,12.88-3.4,84.12,84.12,0,0,0-16.49-4.76C120.08,160.82,113.59,160.62,107.64,163.3Z" transform="translate(-16.51 -33.71)"/><path class="cls-1" d="M136.76,159.07c-5.08-3.64-10.19-7.3-15.9-9.82s-12.13-3.83-18.24-2.56a85.32,85.32,0,0,0,8.83,7.5,28.32,28.32,0,0,0,10.39,4.95C126.65,160.2,131.89,159.81,136.76,159.07Z" transform="translate(-16.51 -33.71)"/><path class="cls-4" d="M128.36,160.36a31.23,31.23,0,0,1-6.64-.66,28.77,28.77,0,0,1-10.6-5,85.65,85.65,0,0,1-8.9-7.55l-.77-.75,1-.22c5.64-1.17,12.06-.27,18.59,2.6,5.78,2.55,11,6.27,16,9.88l1.13.81-1.38.21A57.06,57.06,0,0,1,128.36,160.36Zm-24.54-13.31a81.38,81.38,0,0,0,8,6.68A27.84,27.84,0,0,0,122,158.59a39.3,39.3,0,0,0,13.32.12,83.67,83.67,0,0,0-14.65-8.94C116.47,147.94,110.26,146,103.82,147.05Z" transform="translate(-16.51 -33.71)"/><path class="cls-1" d="M128.23,146.88c-5.71-2.51-11.47-5-17.58-6.33S98,139.3,92.27,141.8a84.33,84.33,0,0,0,10.2,5.52A28.27,28.27,0,0,0,113.65,150C118.57,150.08,123.62,148.61,128.23,146.88Z" transform="translate(-16.51 -33.71)"/><path class="cls-2" d="M113.87,150.6h-.22a28.83,28.83,0,0,1-11.42-2.76A85.75,85.75,0,0,1,92,142.29l-.91-.57,1-.44c5.27-2.31,11.74-2.75,18.72-1.28,6.19,1.3,12,3.87,17.69,6.36l1.27.56-1.3.49C124.78,148.79,119.32,150.6,113.87,150.6Zm-20.35-8.69a82.89,82.89,0,0,0,9.18,4.89,27.58,27.58,0,0,0,11,2.66,39,39,0,0,0,13-2.63,83.86,83.86,0,0,0-16.18-5.72C106.08,140.17,99.62,139.59,93.52,141.91Z" transform="translate(-16.51 -33.71)"/><path class="cls-1" d="M122.45,137.66c-4.94-2.92-9.93-5.86-15.37-7.69s-11.42-2.53-16.91-.86a78.9,78.9,0,0,0,8.7,6.15,26.23,26.23,0,0,0,9.92,3.69C113.28,139.53,118.05,138.74,122.45,137.66Z" transform="translate(-16.51 -33.71)"/><path class="cls-2" d="M112,139.71a25.05,25.05,0,0,1-3.24-.2,26.59,26.59,0,0,1-10.14-3.77,76.94,76.94,0,0,1-8.77-6.19l-.84-.67,1-.32c5.08-1.53,11-1.24,17.27.87,5.51,1.86,10.57,4.85,15.47,7.74l1.2.71-1.36.33A45.48,45.48,0,0,1,112,139.71ZM91.4,129.36a75.38,75.38,0,0,0,7.76,5.41,25.42,25.42,0,0,0,9.7,3.61,35.75,35.75,0,0,0,12.08-.95,76.66,76.66,0,0,0-14-6.93C103,129.17,97.18,127.94,91.4,129.36Z" transform="translate(-16.51 -33.71)"/><path class="cls-1" d="M116.12,127.23c-3.94-3.41-7.92-6.85-12.48-9.38s-9.8-4.12-15-3.53a70.3,70.3,0,0,0,6.78,6.92,23.79,23.79,0,0,0,8.26,4.91A34.59,34.59,0,0,0,116.12,127.23Z" transform="translate(-16.51 -33.71)"/><path class="cls-2" d="M112.62,127.91a30.49,30.49,0,0,1-9.09-1.21,24.25,24.25,0,0,1-8.47-5,71.13,71.13,0,0,1-6.83-7l-.71-.81,1.07-.13c4.8-.54,10.1.7,15.33,3.6,4.63,2.57,8.67,6.07,12.58,9.45l1,.91-1.39.09C115.12,127.86,113.92,127.91,112.62,127.91Zm-22.8-13.12a68.17,68.17,0,0,0,6,6,23,23,0,0,0,8.07,4.8,32,32,0,0,0,10.8,1.12,69.33,69.33,0,0,0-11.31-8.39C100.09,116.52,95.17,114.5,89.82,114.79Z" transform="translate(-16.51 -33.71)"/><path class="cls-1" d="M111.27,117.56A68.69,68.69,0,0,0,100.83,108c-3.9-2.67-8.48-4.54-13.2-4.45a64.4,64.4,0,0,0,5.52,6.81,21.39,21.39,0,0,0,7,5.13A31.36,31.36,0,0,0,111.27,117.56Z" transform="translate(-16.51 -33.71)"/><path class="cls-2" d="M112.64,118.17l-1.39,0a32.24,32.24,0,0,1-11.3-2.07,22.05,22.05,0,0,1-7.21-5.26,63.24,63.24,0,0,1-5.57-6.87l-.63-.88,1.08,0a23.5,23.5,0,0,1,13.53,4.55,69.17,69.17,0,0,1,10.53,9.59Zm-23.89-14A63.1,63.1,0,0,0,93.56,110a21,21,0,0,0,6.84,5,29,29,0,0,0,9.48,1.92,61.48,61.48,0,0,0-9.38-8.42A23.36,23.36,0,0,0,88.75,104.17Z" transform="translate(-16.51 -33.71)"/><path class="cls-1" d="M106.6,107.17a59,59,0,0,0-7.68-9.48,19.87,19.87,0,0,0-10.68-5.51,54.67,54.67,0,0,0,3.83,6.53A18.4,18.4,0,0,0,97.4,104,27,27,0,0,0,106.6,107.17Z" transform="translate(-16.51 -33.71)"/><path class="cls-2" d="M107.87,108l-1.37-.25a28.06,28.06,0,0,1-9.4-3.25A18.82,18.82,0,0,1,91.6,99a56.1,56.1,0,0,1-3.87-6.59l-.48-1,1.06.14a20.31,20.31,0,0,1,11,5.66,59.89,59.89,0,0,1,7.76,9.56Zm-18.6-15a51.75,51.75,0,0,0,3.26,5.44,18,18,0,0,0,5.16,5.14,24.77,24.77,0,0,0,7.63,2.81,52.42,52.42,0,0,0-6.79-8.22A20.12,20.12,0,0,0,89.27,92.94Z" transform="translate(-16.51 -33.71)"/><path class="cls-1" d="M103.1,98.5a54.26,54.26,0,0,0-6.24-9.24,18.14,18.14,0,0,0-9.29-5.88,51,51,0,0,0,3,6.25A17.14,17.14,0,0,0,95,94.88,24.76,24.76,0,0,0,103.1,98.5Z" transform="translate(-16.51 -33.71)"/><path class="cls-2" d="M104.28,99.42l-1.34-.37a25.64,25.64,0,0,1-8.32-3.72A17.43,17.43,0,0,1,90,89.91a50.07,50.07,0,0,1-3-6.32l-.4-1,1,.24a18.58,18.58,0,0,1,9.59,6,54.32,54.32,0,0,1,6.31,9.34ZM88.53,84.23A47.12,47.12,0,0,0,91,89.35a16.4,16.4,0,0,0,4.27,5.07,22.07,22.07,0,0,0,6.59,3.13,47.71,47.71,0,0,0-5.45-7.91A18.45,18.45,0,0,0,88.53,84.23Z" transform="translate(-16.51 -33.71)"/><path class="cls-1" d="M100.45,90.88a52.08,52.08,0,0,0-4.91-9.5,17.32,17.32,0,0,0-8.18-6.62A47.66,47.66,0,0,0,89.48,81a16.14,16.14,0,0,0,3.63,5.49A23.69,23.69,0,0,0,100.45,90.88Z" transform="translate(-16.51 -33.71)"/><path class="cls-2" d="M101.52,91.93l-1.29-.53a24.72,24.72,0,0,1-7.51-4.46A16.75,16.75,0,0,1,89,81.26a48.58,48.58,0,0,1-2.15-6.36l-.28-1,1,.36A17.82,17.82,0,0,1,96,81.06a52.54,52.54,0,0,1,5,9.59ZM88.21,75.71A46.15,46.15,0,0,0,90,80.81a15.69,15.69,0,0,0,3.5,5.3,21.35,21.35,0,0,0,5.86,3.69,45.33,45.33,0,0,0-4.28-8.09A17.74,17.74,0,0,0,88.21,75.71Z" transform="translate(-16.51 -33.71)"/><path class="cls-1" d="M97.74,82.86a48,48,0,0,0-3.41-9.26,16,16,0,0,0-6.74-7,45.12,45.12,0,0,0,1.23,6A14.83,14.83,0,0,0,91.52,78,21.78,21.78,0,0,0,97.74,82.86Z" transform="translate(-16.51 -33.71)"/><path class="cls-2" d="M98.67,84l-1.21-.68a22.73,22.73,0,0,1-6.38-5,15.43,15.43,0,0,1-2.81-5.65A44.94,44.94,0,0,1,87,66.67l-.15-1.07,1,.48a16.6,16.6,0,0,1,7,7.25,48.67,48.67,0,0,1,3.44,9.37ZM88.33,67.65a38.91,38.91,0,0,0,1,4.78A14.29,14.29,0,0,0,92,77.67a19.26,19.26,0,0,0,4.83,4,40.62,40.62,0,0,0-3-7.78A16.36,16.36,0,0,0,88.33,67.65Z" transform="translate(-16.51 -33.71)"/><path class="cls-1" d="M138.84,161C137,155,135.08,149,134.47,142.82s.13-12.73,3.24-18.13a84.7,84.7,0,0,1,4.38,10.73,28.26,28.26,0,0,1,1.47,11.41C143.07,151.73,141.07,156.59,138.84,161Z" transform="translate(-16.51 -33.71)"/><path class="cls-4" d="M138.72,162.48l-.42-1.33c-1.85-5.89-3.77-12-4.4-18.28-.7-7.09.45-13.48,3.32-18.47l.54-.93.46,1a84.74,84.74,0,0,1,4.41,10.8,29,29,0,0,1,1.5,11.65c-.55,5.49-3,10.82-4.78,14.35Zm-1-36.54c-3,5.81-3.09,12.29-2.65,16.82A84.43,84.43,0,0,0,139,159.47a39.12,39.12,0,0,0,4-12.69,27.75,27.75,0,0,0-1.45-11.19A81.53,81.53,0,0,0,137.68,125.94Z" transform="translate(-16.51 -33.71)"/><path class="cls-1" d="M130.31,149.85c-.91-5.82-1.83-11.7-1.52-17.58s1.92-11.87,5.59-16.49A81.34,81.34,0,0,1,137,126.43a26.71,26.71,0,0,1-.23,10.87C135.57,141.81,133,146.07,130.31,149.85Z" transform="translate(-16.51 -33.71)"/><path class="cls-4" d="M130,151.32l-.21-1.38c-.91-5.77-1.84-11.73-1.53-17.7.35-6.74,2.32-12.55,5.71-16.81l.68-.84.31,1a79.26,79.26,0,0,1,2.59,10.72,27.27,27.27,0,0,1-.24,11.1c-1.29,5.06-4.33,9.7-6.5,12.74Zm4.2-34.3c-3.56,5-4.59,11-4.81,15.27a79.41,79.41,0,0,0,1.3,16.08,36.9,36.9,0,0,0,5.52-11.21,26.27,26.27,0,0,0,.22-10.64A77.91,77.91,0,0,0,134.16,117Z" transform="translate(-16.51 -33.71)"/><path class="cls-1" d="M124.52,141c-1.51-5-3-10-3.48-15.15s.23-10.58,2.86-15a70.51,70.51,0,0,1,3.54,9,23.62,23.62,0,0,1,1.13,9.5A34.39,34.39,0,0,1,124.52,141Z" transform="translate(-16.51 -33.71)"/><path class="cls-4" d="M124.38,142.46l-.41-1.34c-1.49-4.92-3-10-3.49-15.26-.52-5.92.49-11.24,2.93-15.38l.55-.93.46,1a71.84,71.84,0,0,1,3.57,9,24.18,24.18,0,0,1,1.14,9.74c-.51,4.58-2.59,9-4.11,11.92ZM123.86,112a25.69,25.69,0,0,0-2.25,13.74,68.68,68.68,0,0,0,3,13.68A32.06,32.06,0,0,0,128,129.17a23,23,0,0,0-1.1-9.27A67.47,67.47,0,0,0,123.86,112Z" transform="translate(-16.51 -33.71)"/><path class="cls-1" d="M116.9,127.45a66.43,66.43,0,0,1-.09-13.74,22.35,22.35,0,0,1,5.36-12.43,61.34,61.34,0,0,1,1.34,8.41,20.8,20.8,0,0,1-.86,8.42A30.31,30.31,0,0,1,116.9,127.45Z" transform="translate(-16.51 -33.71)"/><path class="cls-4" d="M116.44,128.89l-.11-1.39a67.55,67.55,0,0,1-.08-13.86,22.81,22.81,0,0,1,5.51-12.75l.74-.79.23,1.05a63.17,63.17,0,0,1,1.34,8.5,21.31,21.31,0,0,1-.88,8.65,31.7,31.7,0,0,1-5.86,9.52Zm5.42-26.39a22.78,22.78,0,0,0-4.49,11.29,60,60,0,0,0,0,12.21,28,28,0,0,0,4.75-8.07,20.31,20.31,0,0,0,.83-8.19A60.35,60.35,0,0,0,121.86,102.5Z" transform="translate(-16.51 -33.71)"/><path class="cls-1" d="M112.46,119.46a59.67,59.67,0,0,1,.79-12.1,19.75,19.75,0,0,1,5.51-10.61,53.69,53.69,0,0,1,.64,7.49,18.27,18.27,0,0,1-1.28,7.36A26.83,26.83,0,0,1,112.46,119.46Z" transform="translate(-16.51 -33.71)"/><path class="cls-4" d="M111.9,120.86v-1.39a58.46,58.46,0,0,1,.8-12.22,20.2,20.2,0,0,1,5.67-10.92l.79-.73.16,1.06a55.7,55.7,0,0,1,.65,7.58,18.88,18.88,0,0,1-1.33,7.58,27.88,27.88,0,0,1-5.77,8ZM118.35,98a20.18,20.18,0,0,0-4.54,9.52A52,52,0,0,0,113,118a24.52,24.52,0,0,0,4.56-6.66,17.72,17.72,0,0,0,1.24-7.13A50.91,50.91,0,0,0,118.35,98Z" transform="translate(-16.51 -33.71)"/><path class="cls-1" d="M108.9,111.78a57.34,57.34,0,0,1-1.41-11.65A19.1,19.1,0,0,1,110.84,89a53.72,53.72,0,0,1,2,7,17.79,17.79,0,0,1,.09,7.23A25.88,25.88,0,0,1,108.9,111.78Z" transform="translate(-16.51 -33.71)"/><path class="cls-4" d="M108.61,113.26l-.26-1.37a57,57,0,0,1-1.43-11.77,19.64,19.64,0,0,1,3.46-11.42l.64-.86.35,1a52.53,52.53,0,0,1,2,7.09,18.14,18.14,0,0,1,.09,7.47,27.05,27.05,0,0,1-4.05,8.68Zm2-23a19.45,19.45,0,0,0-2.6,9.83,50.89,50.89,0,0,0,1.13,10.14,23.23,23.23,0,0,0,3.13-7.11,17.26,17.26,0,0,0-.09-7A50.28,50.28,0,0,0,110.66,90.31Z" transform="translate(-16.51 -33.71)"/><path class="cls-1" d="M103.63,100a56.76,56.76,0,0,1,.64-11.73,19.11,19.11,0,0,1,5.22-10.33,53.43,53.43,0,0,1,.7,7.25A17.85,17.85,0,0,1,109,92.33,26.05,26.05,0,0,1,103.63,100Z" transform="translate(-16.51 -33.71)"/><path class="cls-2" d="M103.08,101.4l0-1.39a56.92,56.92,0,0,1,.65-11.85,19.61,19.61,0,0,1,5.39-10.63l.78-.74.17,1.06a54.52,54.52,0,0,1,.71,7.33,18.31,18.31,0,0,1-1.22,7.37,27,27,0,0,1-5.5,7.84Zm6-22.24a19.53,19.53,0,0,0-4.28,9.22,51.1,51.1,0,0,0-.65,10.19,23.45,23.45,0,0,0,4.32-6.46,17.11,17.11,0,0,0,1.13-6.91A51.2,51.2,0,0,0,109.1,79.16Z" transform="translate(-16.51 -33.71)"/><path class="cls-1" d="M101.25,93.24a52.69,52.69,0,0,1-1.43-10.88,17.93,17.93,0,0,1,3-10.39,48.05,48.05,0,0,1,1.89,6.55,16.52,16.52,0,0,1,.15,6.75A24.28,24.28,0,0,1,101.25,93.24Z" transform="translate(-16.51 -33.71)"/><path class="cls-2" d="M101,94.72l-.27-1.36a53.72,53.72,0,0,1-1.44-11,18.38,18.38,0,0,1,3.14-10.72l.63-.87.36,1a51.32,51.32,0,0,1,1.91,6.62,17.29,17.29,0,0,1,.15,7,25,25,0,0,1-3.72,8.16Zm1.72-21.47a18.22,18.22,0,0,0-2.29,9.12,46.33,46.33,0,0,0,1.13,9.37,22,22,0,0,0,2.81-6.58,16.12,16.12,0,0,0-.15-6.53A44.88,44.88,0,0,0,102.68,73.25Z" transform="translate(-16.51 -33.71)"/><path class="cls-1" d="M97.82,83.35a53,53,0,0,1,.08-11,17.94,17.94,0,0,1,4.43-9.87,49.29,49.29,0,0,1,1,6.74,16.73,16.73,0,0,1-.78,6.71A24.42,24.42,0,0,1,97.82,83.35Z" transform="translate(-16.51 -33.71)"/><path class="cls-2" d="M97.34,84.77l-.09-1.39a54.13,54.13,0,0,1,.09-11.09,18.35,18.35,0,0,1,4.58-10.18l.75-.78.22,1.06a48.59,48.59,0,0,1,1,6.81,17,17,0,0,1-.81,7,25.22,25.22,0,0,1-4.8,7.57Zm4.66-21a18.12,18.12,0,0,0-3.53,8.72,46.43,46.43,0,0,0-.17,9.43A21.81,21.81,0,0,0,102,75.76a16,16,0,0,0,.75-6.48A45.5,45.5,0,0,0,102,63.74Z" transform="translate(-16.51 -33.71)"/><path class="cls-1" d="M96.48,79a53.27,53.27,0,0,1-3.62-10.36,17.79,17.79,0,0,1,.82-10.78,48.64,48.64,0,0,1,3.19,6,16.59,16.59,0,0,1,1.54,6.58A24.39,24.39,0,0,1,96.48,79Z" transform="translate(-16.51 -33.71)"/><path class="cls-2" d="M96.51,80.5,96,79.22A53.88,53.88,0,0,1,92.3,68.75a18.3,18.3,0,0,1,.87-11.14l.44-1,.56.92a50,50,0,0,1,3.22,6.08A17.18,17.18,0,0,1,99,70.44a25,25,0,0,1-2,8.76ZM93.79,59.12a18.17,18.17,0,0,0-.38,9.4,47.08,47.08,0,0,0,3,8.94,21.83,21.83,0,0,0,1.4-7,16,16,0,0,0-1.49-6.36A47.39,47.39,0,0,0,93.79,59.12Z" transform="translate(-16.51 -33.71)"/><path class="cls-5" d="M302.33,204.65H71.76c-.91,0-1.66-.34-1.66-.75s.75-.76,1.66-.76H302.33c.91,0,1.66.34,1.66.76S303.24,204.65,302.33,204.65Z" transform="translate(-16.51 -33.71)"/><path class="cls-1" d="M42.32,117.1a.51.51,0,0,1-.18-1c.72-.26,17.61-6.33,30.23,0a.51.51,0,1,1-.45.91c-12.24-6.17-29.26,0-29.43,0Z" transform="translate(-16.51 -33.71)"/><path class="cls-1" d="M262,98.66v92.68A12.63,12.63,0,0,1,249.38,204H120.62A12.63,12.63,0,0,1,108,191.34V98.66A12.64,12.64,0,0,1,120.62,86H249.38A12.64,12.64,0,0,1,262,98.66Z" transform="translate(-16.51 -33.71)"/><path class="cls-5" d="M249.38,204.54H120.62a13.21,13.21,0,0,1-13.2-13.2V98.66a13.22,13.22,0,0,1,13.2-13.21H249.38a13.22,13.22,0,0,1,13.21,13.21v92.68A13.22,13.22,0,0,1,249.38,204.54Zm-128.76-118a12.09,12.09,0,0,0-12.07,12.08v92.68a12.08,12.08,0,0,0,12.07,12.07H249.38a12.08,12.08,0,0,0,12.07-12.07V98.66a12.09,12.09,0,0,0-12.07-12.08Z" transform="translate(-16.51 -33.71)"/><path class="cls-6" d="M262,98.66v2.75H108V98.66A12.64,12.64,0,0,1,120.62,86H249.38A12.64,12.64,0,0,1,262,98.66Z" transform="translate(-16.51 -33.71)"/><path class="cls-5" d="M262.3,101.69H107.7v-3a12.94,12.94,0,0,1,12.92-12.93H249.38A12.94,12.94,0,0,1,262.3,98.66Zm-154-.56H261.74V98.66A12.37,12.37,0,0,0,249.38,86.3H120.62a12.37,12.37,0,0,0-12.35,12.36Z" transform="translate(-16.51 -33.71)"/><circle class="cls-1" cx="100.97" cy="61.11" r="2.85"/><circle class="cls-1" cx="110.54" cy="61.11" r="2.85"/><circle class="cls-1" cx="120.11" cy="60.89" r="2.85"/><path class="cls-5" d="M249.84,41.67H219.16A12.93,12.93,0,0,0,206.24,54.6h0a12.92,12.92,0,0,0,10.41,12.68l.56,4.38a1,1,0,0,0,1.71.66l5.64-4.8h25.28A12.92,12.92,0,0,0,262.77,54.6h0A12.93,12.93,0,0,0,249.84,41.67Z" transform="translate(-16.51 -33.71)"/><path class="cls-5" d="M124.64,44.59a10.88,10.88,0,0,0-10.88-10.88H87.92a10.88,10.88,0,1,0,0,21.76h21.72l4.44,3.74a.71.71,0,0,0,1.13-.57V55.36A10.88,10.88,0,0,0,124.64,44.59Z" transform="translate(-16.51 -33.71)"/><path class="cls-1" d="M114.62,42.81H86.07a1.14,1.14,0,0,1,0-2.27h28.55a1.14,1.14,0,0,1,0,2.27Z" transform="translate(-16.51 -33.71)"/><path class="cls-1" d="M114.62,47.67H98.41a1.14,1.14,0,0,1,0-2.28h16.21a1.14,1.14,0,0,1,0,2.28Z" transform="translate(-16.51 -33.71)"/><path class="cls-1" d="M250.53,53.4H222a1.14,1.14,0,1,1,0-2.27h28.54a1.14,1.14,0,1,1,0,2.27Z" transform="translate(-16.51 -33.71)"/><path class="cls-1" d="M238.25,58.26H222A1.14,1.14,0,1,1,222,56h16.21a1.14,1.14,0,0,1,0,2.28Z" transform="translate(-16.51 -33.71)"/><polygon class="cls-1" points="34.98 40.07 37.48 39.53 36.45 46.08 34.98 40.07"/><path class="cls-5" d="M53.12,74.16l-.31,2-.45-1.83.76-.16m1.74-1.85-4.25.92,2.5,10.19,1.75-11.11Z" transform="translate(-16.51 -33.71)"/><polygon class="cls-1" points="6.83 31.09 42.83 29.83 38.46 36.69 6.83 31.09"/><path class="cls-5" d="M30.17,65.28l27.83-1-3.38,5.3L30.17,65.28m-13.66-1,38.8,6.87,5.37-8.41L16.51,64.32Z" transform="translate(-16.51 -33.71)"/><polygon class="cls-1" points="3.06 31.98 37.3 39.12 30.68 52.39 3.06 31.98"/><path class="cls-5" d="M22.64,67.06l30.11,6.28L46.92,85l-24.28-18m-6.13-2.74L47.44,87.18l7.42-14.87-38.35-8Z" transform="translate(-16.51 -33.71)"/><path class="cls-5" d="M186.82,72.28c-1.16,16.93-7.31,24.44-12.41,25.69L141.79,73.63s-7.41-7.32-1.25-12.89c0,0-4.91-10.81,4.9-15.3,13.6-6.23,25.89,11.74,25.89,11.74a19,19,0,0,1,7.38.89C183,59.56,187.43,63.25,186.82,72.28Z" transform="translate(-16.51 -33.71)"/><path class="cls-1" d="M186.43,103.65l-6.16,34.83-23.66,3.17-7.47-23.23,5.83-1.79-.46-6.44L154.2,106s-17.37,3.75-17.32-9.53,5.68-31.56,5.68-31.56,3.37,8.95,22.8.87c0,0-3,6.83,5.87,8.27,0,0-4.72,2-1.73,11.07s4.23,8.66,4.23,8.66l5.1,15.3Z" transform="translate(-16.51 -33.71)"/><path class="cls-5" d="M156.21,142.28l-7.79-24.23,6-1.83-.69-9.59c-2.23.38-9.61,1.3-14-2.29-2.23-1.8-3.35-4.46-3.34-7.91.06-13.16,5.65-31.54,5.71-31.72l.48-1.6.59,1.56a6.15,6.15,0,0,0,3.41,3c2.88,1.23,8.45,1.8,18.64-2.43l1.31-.55-.57,1.3a5.75,5.75,0,0,0,.1,4.52c.84,1.52,2.64,2.52,5.34,3l1.93.32-1.79.77c-.17.07-4.19,2-1.42,10.36,2.2,6.69,3.41,8,3.7,8.24l.35-.11,5,15.1,8.1-5.75L180.76,139Zm-6.35-23.48L157,141,179.79,138l5.84-33.06-7.1,5-5.25-15.75c-1.12-.62-2.56-3.62-4.32-8.93-2.17-6.57-.43-9.65.9-11A7.2,7.2,0,0,1,165,71a6.32,6.32,0,0,1-.5-4.32C154.56,70.62,149,70,146,68.67a8.26,8.26,0,0,1-3.25-2.41c-1.23,4.3-5.24,19.13-5.29,30.17,0,3.09,1,5.45,2.91,7,4.71,3.82,13.63,2,13.72,1.94l.64-.13.85,11.77Z" transform="translate(-16.51 -33.71)"/><path class="cls-5" d="M167.09,99.51a44.71,44.71,0,0,1-12.58,10.2l-.31-4.24S160.07,104.6,167.09,99.51Z" transform="translate(-16.51 -33.71)"/><path class="cls-5" d="M108.43,154.65s-4.35-2.26-3.14-4.83,5.6-.18,5.6-.18Z" transform="translate(-16.51 -33.71)"/><path class="cls-5" d="M226.21,109.25l6.06,3.15s2.43-5.25,0-6.37S227.82,105.91,226.21,109.25Z" transform="translate(-16.51 -33.71)"/><path class="cls-1" d="M135.17,161.52l.88-.25s-11.47,33.1-30.17,35c-18.95,1.92-29.27-22.42-32-27.24s-11.93-36.15-14.23-41-9.31-6.7-14-7.8a13.35,13.35,0,0,1-7.09-4.3c-2.35-.31-6.61-6.25-7.71-7.45a3.63,3.63,0,0,1-.8-2.88l-2.8-3c-.3-2.72,3.56-1.7,3.56-1.7l6.28,3.82s-2.93-6.6-2.66-7.64c.46-1.72,4.72,1.23,5.86,4s3.73,5.53,8.66,7.76a24.83,24.83,0,0,0,8.47,2.34c2.34-1.08,7.57-1.8,7.57-1.8-2.4-2.16-4.69-7.69-4.57-10.16s3-1.74,3.67-.42,1.38,4.93,6.73,6.79c4.61,1.6,8,10.29,8.81,12.68,0,0,0,0,0,0l.2.56,21.22,43.25a1.21,1.21,0,0,0,2.15,0l7.17-11.6Z" transform="translate(-16.51 -33.71)"/><path class="cls-5" d="M103.75,197c-16.18,0-25.68-18.59-29.35-25.77-.4-.79-.72-1.42-1-1.87-1.5-2.71-4.91-13.22-8.21-23.39-2.58-8-5-15.49-6-17.62-2.29-4.81-9.91-6.62-13.57-7.49a14.07,14.07,0,0,1-7.27-4.33c-1.9-.46-4.41-3.39-6.81-6.37-.45-.55-.8-1-1-1.21a4.07,4.07,0,0,1-1-3.07l-2.75-3,0-.19a2,2,0,0,1,.64-1.92c1.16-1,3.37-.45,3.62-.39l.15.07,4.76,2.88c-1-2.31-2.21-5.49-2-6.37A1.18,1.18,0,0,1,35.12,96c1.67-.09,4.82,2.56,5.78,4.91,1.2,3,4,5.49,8.36,7.45a24.9,24.9,0,0,0,8.13,2.28A33.38,33.38,0,0,1,63.91,109c-2.23-2.63-4.09-7.46-4-9.79a2.06,2.06,0,0,1,1.6-2.12,3.09,3.09,0,0,1,3.14,1.48c.1.19.2.44.31.71a9.08,9.08,0,0,0,6.1,5.8c4.8,1.67,8.22,10.38,9.15,13l.21.58,21.2,43.21a.63.63,0,0,0,.56.36.66.66,0,0,0,.58-.34l7.44-12.06,25,11,1.74-.5-.36,1a98.85,98.85,0,0,1-8.13,16.89c-6.91,11.3-14.69,17.69-22.52,18.48A20.37,20.37,0,0,1,103.75,197ZM27.88,102.37l2.86,3.09,0,.28a3.09,3.09,0,0,0,.65,2.39c.24.26.6.7,1.06,1.27,1.52,1.88,4.67,5.78,6.31,6l.23,0,.15.18a12.87,12.87,0,0,0,6.77,4.09c3.83.92,11.81,2.82,14.34,8.11,1,2.2,3.5,9.76,6.09,17.76,3.13,9.64,6.67,20.57,8.13,23.19.26.47.58,1.1,1,1.9,3.74,7.32,13.67,26.75,30.42,25,16.27-1.65,27.16-28,29.3-33.58l-24.45-10.79-6.91,11.18a1.77,1.77,0,0,1-3.14-.08L79.39,119.14l0,0s-.06-.2-.18-.53l0-.06c-1.83-5.17-5-11.13-8.46-12.32a10.19,10.19,0,0,1-6.77-6.44c-.1-.25-.19-.46-.28-.64a2,2,0,0,0-1.88-.87c-.17,0-.66.14-.71,1.07-.11,2.31,2.08,7.63,4.38,9.71l.91.81-1.21.17c-.05,0-5.17.72-7.41,1.76l-.12,0h-.14a25.39,25.39,0,0,1-8.69-2.39c-4.62-2.09-7.63-4.8-8.95-8.06-.86-2.13-3.63-4.28-4.66-4.21-.1,0-.1,0-.12.09-.09.61,1.29,4.25,2.62,7.26l.74,1.65-7.75-4.71c-.55-.13-2-.32-2.52.17A.87.87,0,0,0,27.88,102.37Z" transform="translate(-16.51 -33.71)"/><path class="cls-7" d="M79.71,118.33c-2.92-7.7-14.64-8.89-14.64-8.89-2.4-2.16-4.69-7.69-4.57-10.16s3-1.74,3.67-.42,1.38,4.93,6.73,6.79C75.51,107.25,78.86,115.94,79.71,118.33Z" transform="translate(-16.51 -33.71)"/><path class="cls-5" d="M79.18,118.53C76.41,111.25,65.13,110,65,110h-.19l-.14-.13c-2.55-2.29-4.88-8-4.75-10.61a2.06,2.06,0,0,1,1.6-2.12,3.09,3.09,0,0,1,3.14,1.48c.1.19.2.44.31.71a9.08,9.08,0,0,0,6.1,5.8c4.8,1.67,8.22,10.38,9.15,13ZM65.32,108.9a27.51,27.51,0,0,1,6.18,1.57,18.19,18.19,0,0,1,5.69,3.33c-1.79-3.6-4.07-6.78-6.48-7.61a10.19,10.19,0,0,1-6.77-6.44c-.1-.25-.19-.46-.28-.64a2,2,0,0,0-1.88-.87c-.17,0-.66.14-.71,1.07C61,101.58,63.07,106.74,65.32,108.9Z" transform="translate(-16.51 -33.71)"/><path class="cls-5" d="M53.41,112.38c-6.93,0-15.77-6.45-16.2-6.76a.56.56,0,0,1-.12-.8.57.57,0,0,1,.79-.12c.12.09,11.72,8.55,18.19,6.1a.57.57,0,0,1,.4,1.06A8.59,8.59,0,0,1,53.41,112.38Z" transform="translate(-16.51 -33.71)"/><path class="cls-5" d="M47.28,115.42c-4.14,0-6.86-4.67-8-6.6l-.22-.38a1.54,1.54,0,0,0-1.65-.8,3.2,3.2,0,0,0-1.09.37l-.31.18-.29-.2a37.61,37.61,0,0,0-3.61-2.13,1.31,1.31,0,0,0-1.58.16.58.58,0,0,1-.8,0,.56.56,0,0,1-.05-.79,2.48,2.48,0,0,1,2.91-.44,34.09,34.09,0,0,1,3.48,2,4.48,4.48,0,0,1,1.2-.34,2.65,2.65,0,0,1,2.76,1.34l.23.39c1.28,2.2,4.29,7.37,8.74,5.7,5.14-1.92,8.23-3.22,8.26-3.23a.56.56,0,0,1,.74.3.58.58,0,0,1-.3.75s-3.14,1.32-8.3,3.24A6.08,6.08,0,0,1,47.28,115.42Z" transform="translate(-16.51 -33.71)"/><path class="cls-5" d="M252.4,204H159.83l-7.1-15.21-4.26-9.15L140.7,163l-2.55-5.47-.05-.12-1.48,4.15-4.31-1.9-5-2.19-17.67-7.79s-2.86-1.12-3.78-.39c0,0,1.88-3.84,4.69-8.49A76.17,76.17,0,0,1,118,130.17a20.68,20.68,0,0,1,5.81-4.95,75.81,75.81,0,0,1,11.51-4.08c7.75-2.21,15.58-3.81,15.58-3.81s.05,10.93,6.25,15.74a10.88,10.88,0,0,0,7.12,2.22,16.69,16.69,0,0,0,2.53-.24,14.85,14.85,0,0,0,8.18-4.49c8.42-8.65,9.77-26.2,9.77-26.2a38.88,38.88,0,0,1,6.9-5.4c4.09-2.51,9.46-4.64,14.62-3.16,1.26.36,2.59.78,4,1.26,9.59,3.25,21.12,8.58,21.92,9-.39-.09-3-.56-4.71,2.62-1,1.71-2,9.34-2.77,16.6-.82,7.41-1.4,14.45-1.4,14.45l5.92,13.07.07.16,2.73,6,6.84,15.12,4.31,9.53Z" transform="translate(-16.51 -33.71)"/><path class="cls-5" d="M252.4,204.83H159.83a.86.86,0,0,1-.77-.5L138.2,159.61l-.78,2.19a.84.84,0,0,1-.46.5.89.89,0,0,1-.68,0l-27-11.88a5.63,5.63,0,0,0-2.91-.5.85.85,0,0,1-1.29-1s1.93-3.92,4.72-8.55a75.76,75.76,0,0,1,7.56-10.71,21,21,0,0,1,6.08-5.15,74.14,74.14,0,0,1,11.64-4.14c7.7-2.2,15.57-3.81,15.65-3.83a.84.84,0,0,1,.71.18.86.86,0,0,1,.31.65c0,.11.13,10.58,5.92,15.08a10.23,10.23,0,0,0,6.58,2,15.8,15.8,0,0,0,2.4-.23,14.07,14.07,0,0,0,7.72-4.24c8.1-8.32,9.51-25.5,9.53-25.67a.81.81,0,0,1,.24-.53,39,39,0,0,1,7.07-5.54c5.55-3.4,10.84-4.53,15.3-3.25,1.31.38,2.66.81,4,1.27,9.91,3.36,21.89,8.94,22,9a.85.85,0,0,1-.54,1.61c-.39-.09-2.36-.38-3.79,2.21-.41.74-1.3,3.84-2.67,16.27-.72,6.59-1.26,13-1.37,14.21l29,64.08a.88.88,0,0,1-.06.82A.87.87,0,0,1,252.4,204.83Zm-92-1.71h90.71L222.55,140a.88.88,0,0,1-.08-.42c0-.07.59-7.13,1.4-14.48,1.61-14.63,2.56-16.34,2.87-16.91a6.13,6.13,0,0,1,2.54-2.61c-4.06-1.81-12.2-5.36-19.28-7.76-1.32-.45-2.64-.87-3.92-1.24-5-1.45-10.37.87-13.94,3.06a39.26,39.26,0,0,0-6.53,5.07c-.23,2.51-2,18.18-10,26.41a15.75,15.75,0,0,1-8.65,4.73,16.79,16.79,0,0,1-2.66.25,11.83,11.83,0,0,1-7.65-2.39c-5.37-4.17-6.36-12.46-6.54-15.38-2.34.5-8.49,1.86-14.54,3.59a72.47,72.47,0,0,0-11.36,4,19.48,19.48,0,0,0-5.55,4.74,74.6,74.6,0,0,0-7.38,10.47c-1.74,2.88-3.13,5.46-3.92,7a10.58,10.58,0,0,1,2.59.67l26.15,11.52,1.17-3.29a.86.86,0,0,1,.77-.56.83.83,0,0,1,.81.5l.06.12Z" transform="translate(-16.51 -33.71)"/><path class="cls-8" d="M164.31,135.29h0s-5.59,16.41-12.48,16.59-11.35-3.25-14.88-9.31c-3.37-5.76-9.78-14-18.9-12.41a20.68,20.68,0,0,1,5.81-4.95,75.81,75.81,0,0,1,11.51-4.08h0s6.51,2.93,7,6.83,2.61,12.94,7.35,12c4.12-.81,5.85-3,7.51-6.91A10.88,10.88,0,0,0,164.31,135.29Z" transform="translate(-16.51 -33.71)"/><path class="cls-8" d="M127.33,157.43l-17.67-7.79s-2.86-1.12-3.78-.39c0,0,1.88-3.84,4.69-8.49,0,0,10.73-1.15,13.24,5.27A99.1,99.1,0,0,1,127.33,157.43Z" transform="translate(-16.51 -33.71)"/><path class="cls-8" d="M152.1,172.36a25.53,25.53,0,0,0-3.63,7.25L140.7,163s11.4-9.3,19.22-4S154.15,166.69,152.1,172.36Z" transform="translate(-16.51 -33.71)"/><path class="cls-8" d="M170.57,159.56c-1.35,6.61,2.14,18.66-1.65,26.35-2.59,5.25-5.88,13.43-7.68,18.06h-1.41l-7.1-15.21s2.19-7.23,6-10.73,8.85-9.92,7.1-16.72-1-13.81,2.53-18.67A65,65,0,0,0,175,130.56c8.42-8.65,9.77-26.2,9.77-26.2s10.58,9.89,7.17,17.38S171.94,153,170.57,159.56Z" transform="translate(-16.51 -33.71)"/><path class="cls-8" d="M221.86,204c2.64-4.19,4.85-9.27,3.71-13.34-2.4-8.52-5.65-13.69-13.81-14.89s-19.81-6.6-12.61-15.61c6.85-8.56,26-.62,32.89-1.17l6.84,15.12c-1.46-.13-3.45-1-5.75-3.74-4.92-5.89-12.37-11.17-16.57-6.37s3.8,9.73,6.76,10.81c2.39.87,14.11,4.64,19.87,8.83" transform="translate(-16.51 -33.71)"/><polygon class="cls-9" points="121.65 123.78 121.59 123.66 120.11 127.81 115.81 125.91 115.42 111.5 121.56 123.13 121.65 123.78"/><path class="cls-8" d="M191.78,157.33c-7.06,7.49-1.42,16.66,1.4,18.58s9.23,10.47,10.17,13c1.06,2.82,2,15.08,2,15.08H186.54c4.83-11.69,1.41-12.86-6.44-22.72s0-19.33,4-26,14.2-17.51,20-31.2S191.69,99,191.69,99c4.09-2.51,9.46-4.64,14.62-3.16,1.26.36,2.59.78,4,1.26a171.56,171.56,0,0,1,1.83,18.85c0,5.74,5.73,8.16,5.73,8.16l6.88,1.17c-.82,7.41-1.4,14.45-1.4,14.45l5.92,13.07c-7.84-.8-12.2-9.47-17.64-9.27S198.82,149.83,191.78,157.33Z" transform="translate(-16.51 -33.71)"/><polygon class="cls-9" points="212.8 119.21 190.49 97.42 206.82 105.98 212.73 119.05 212.8 119.21"/><path class="cls-1" d="M266,149s-5.17,24.81-8.55,41c-.53,2.55-1,4.89-1.43,6.88l-1.35,6.48c-.86,4.12-12.22,7.32-12.22,7.32,0,.21.07.4.09.59h0c.28,2.39-.89,3.07-3.2,5.16a6,6,0,0,1-5.44,1.4c-2,1.87-4.59.31-4.59.31l-3.07.86c-.82,2.95-4.87,1.63-8.14-1.71s.24-12.91,2.49-16.26,13.69-3.35,13.77-3.35.21-1.78.53-4.65c.23-1.93.5-4.35.81-7.06,1.45-12.94,3.59-32.39,3.64-35.51.08-4.75-26.21-16.18-26.21-16.18L228,109s21.94,15.58,31.32,22S266,149,266,149Z" transform="translate(-16.51 -33.71)"/><path class="cls-5" d="M224.09,221.14c-1.82,0-4.23-1.3-6.39-3.52-3.69-3.77.29-13.79,2.42-17,1-1.53,3.76-2.59,8.1-3.17a50.82,50.82,0,0,1,5.63-.42l.48-4.16c.17-1.44.36-3.17.58-5.08l.22-2c1.08-9.55,3.59-32.12,3.64-35.46.06-3.18-15.84-11.29-25.87-15.65l-.59-.26,15.48-26.31.51.36c.22.16,22,15.65,31.32,22,9.48,6.53,7,18.11,6.93,18.51l-8.54,41c-.53,2.56-1,4.9-1.44,6.89-.69,3.34-1.19,5.71-1.35,6.48-.39,1.9-2.66,3.78-6.75,5.6a49.21,49.21,0,0,1-5.38,2s0,.08,0,.12v0c.27,2.37-.82,3.34-2.62,4.93-.24.21-.5.43-.77.68a6.45,6.45,0,0,1-2.84,1.52,7,7,0,0,1-2.83.08,4.49,4.49,0,0,1-4.81.3l-2.56.72a2.53,2.53,0,0,1-1.78,1.64A3.47,3.47,0,0,1,224.09,221.14Zm10.27-22.95c-3.12,0-11.58.55-13.3,3.1-2.09,3.12-5.59,12.43-2.55,15.54,2.16,2.21,4.66,3.49,6.11,3.12a1.48,1.48,0,0,0,1.07-1.16l.08-.31,3.62-1,.21.13c.09.05,2.24,1.3,3.91-.25l.24-.21.3.09a5.79,5.79,0,0,0,2.56,0A5.44,5.44,0,0,0,239,216q.4-.37.78-.69c1.78-1.58,2.45-2.17,2.24-4v0c0-.16,0-.33-.09-.52l-.09-.51.5-.14c3.07-.86,11.17-3.78,11.81-6.88.16-.77.65-3.14,1.35-6.48.42-2,.9-4.33,1.44-6.89l8.55-41c0-.11,2.47-11.16-6.48-17.32-8.49-5.85-27.49-19.32-30.83-21.68L213.94,134c1.76.79,7.21,3.24,12.59,6.08,13.43,7.06,13.39,9.56,13.38,10.38,0,3.27-2.31,23.68-3.65,35.56l-.22,2c-.22,1.91-.41,3.64-.58,5.08l-.59,5.16Z" transform="translate(-16.51 -33.71)"/><path class="cls-10" d="M238.86,216a6,6,0,0,1-2.6,1.39l.07-.18s3.89-4,5.73-6.37C242.34,213.25,241.17,213.93,238.86,216Z" transform="translate(-16.51 -33.71)"/><path class="cls-5" d="M38.64,116.53a.57.57,0,0,1-.5-.3c-1.28-2.31-4.07-7.83-2.45-9.15a.57.57,0,0,1,.72.88c-.31.25,0,2.84,2.73,7.73a.57.57,0,0,1-.23.77A.64.64,0,0,1,38.64,116.53Z" transform="translate(-16.51 -33.71)"/><path class="cls-5" d="M225.75,219.16a.59.59,0,0,1-.37-.14,50.1,50.1,0,0,1-4.41-4.31c-1.61-1.93,1.23-8.17,1.81-9.4a.58.58,0,0,1,.76-.27.56.56,0,0,1,.27.76c-1.33,2.79-2.81,7.17-2,8.18a49.59,49.59,0,0,0,4.28,4.18.56.56,0,0,1,.06.8A.57.57,0,0,1,225.75,219.16Z" transform="translate(-16.51 -33.71)"/><path class="cls-5" d="M228.83,218.3a.58.58,0,0,1-.48-.25,28.38,28.38,0,0,1-2-3.47c-.79-1.75,2.32-7,3.29-8.55a.56.56,0,0,1,.78-.18.57.57,0,0,1,.19.78c-1.84,3-3.59,6.66-3.22,7.48a25.29,25.29,0,0,0,1.89,3.3.58.58,0,0,1-.16.79A.52.52,0,0,1,228.83,218.3Z" transform="translate(-16.51 -33.71)"/><path class="cls-5" d="M233.41,218a.56.56,0,0,1-.45-.23,8.17,8.17,0,0,1-1.23-2.85c-.42-1.79,3.4-6.59,4.58-8a.57.57,0,0,1,.88.72c-2.25,2.73-4.56,6.19-4.36,7a7.27,7.27,0,0,0,1,2.43.57.57,0,0,1-.12.8A.6.6,0,0,1,233.41,218Z" transform="translate(-16.51 -33.71)"/><path class="cls-5" d="M257,189.59c-.53,2.55-1,4.89-1.43,6.88l-21.13-3.85c.23-1.93.5-4.35.8-7.06Z" transform="translate(-16.51 -33.71)"/><path class="cls-5" d="M247.9,187.86l-1.11,6.61a1.09,1.09,0,0,1-1.21.91l-8.27-.94a1.06,1.06,0,0,1-.7-.36,1.15,1.15,0,0,1-.28-.86l.77-6.83a1.1,1.1,0,0,1,1.25-1l8.61,1.16a.29.29,0,0,1,.1,0A1.08,1.08,0,0,1,247.9,187.86Z" transform="translate(-16.51 -33.71)"/><path class="cls-1" d="M246.78,188l-1,5.39a1,1,0,0,1-1.1.75l-7.07-.72a.81.81,0,0,1-.24-.68l.67-5.36a1,1,0,0,1,1.09-.76l7.52.92h.09A.76.76,0,0,1,246.78,188Z" transform="translate(-16.51 -33.71)"/><path class="cls-1" d="M179.16,80.46l-2.67-.75c6.91-16.81-5.16-22.53-5.16-22.53a19,19,0,0,1,7.38.89C187.09,69.54,179.16,80.46,179.16,80.46Z" transform="translate(-16.51 -33.71)"/><rect class="cls-5" x="139.06" y="56.61" width="5.27" height="3.31" rx="1.66"/><path class="cls-5" d="M163.26,92.78h-3.43V91.64h3.43a2.18,2.18,0,0,0,1.26-.41l3.06-2.29.68.91-3.06,2.29A3.32,3.32,0,0,1,163.26,92.78Z" transform="translate(-16.51 -33.71)"/><path class="cls-11" d="M181.87,86a7.75,7.75,0,0,1-7.51,8,7,7,0,0,1-1.72-.21,7.88,7.88,0,0,1-5.8-7.76,7.77,7.77,0,0,1,7.52-8,7.23,7.23,0,0,1,3.93,1.18A8.07,8.07,0,0,1,181.87,86Z" transform="translate(-16.51 -33.71)"/><path class="cls-1" d="M181.87,86a7.75,7.75,0,0,1-7.51,8,7,7,0,0,1-1.72-.21A8.07,8.07,0,0,1,169.06,87a7.76,7.76,0,0,1,7.52-8,6.91,6.91,0,0,1,1.71.21A8.07,8.07,0,0,1,181.87,86Z" transform="translate(-16.51 -33.71)"/><path class="cls-5" d="M153.71,73.53a2.56,2.56,0,0,1,2-.71c.84.11,3.11,1.36,3.36,2.73S152.1,75,153.71,73.53Z" transform="translate(-16.51 -33.71)"/><path class="cls-5" d="M144.76,70.61A3,3,0,0,0,142,72.44c.05.35,2.09.26,2.72.56s2,.15,2.18-.7S146.38,70.57,144.76,70.61Z" transform="translate(-16.51 -33.71)"/><path class="cls-5" d="M147.34,86.83l-.15,0c-1.8-.47-2.77-1.14-3-2a2.3,2.3,0,0,1,1.1-2.21c1.05-.86,1.59-3.28,1.71-4.14a.57.57,0,0,1,.64-.48.56.56,0,0,1,.48.64c0,.14-.51,3.54-2.11,4.85-.51.43-.77.83-.71,1.1s.29.7,2.15,1.18a.57.57,0,0,1-.14,1.12Z" transform="translate(-16.51 -33.71)"/><path class="cls-5" d="M146.51,90.59a6.94,6.94,0,0,1-4.42-1.9.57.57,0,0,1,.8-.81c.11.11,2.53,2.43,5.21,1.23,1.25-.56,2.16-.65,2.78-.28a1.25,1.25,0,0,1,.62.94.56.56,0,0,1-.51.62.58.58,0,0,1-.62-.52.18.18,0,0,0-.08-.07c-.11-.06-.54-.19-1.73.35A4.93,4.93,0,0,1,146.51,90.59Z" transform="translate(-16.51 -33.71)"/><ellipse class="cls-5" cx="155.56" cy="80.46" rx="2.14" ry="1.72" transform="translate(41.46 192.17) rotate(-83.48)"/><ellipse class="cls-5" cx="143.02" cy="78.5" rx="2.14" ry="1.72" transform="translate(32.29 177.98) rotate(-83.48)"/></svg>